<svg height="1025" node-id="1" sillyvg="true" template-height="1025" template-width="1025" version="1.1" viewBox="0 0 1025 1025" width="1025" xmlns="http://www.w3.org/2000/svg" xmlns:xlink="http://www.w3.org/1999/xlink"><defs node-id="45"><linearGradient gradientUnits="objectBoundingBox" id="linearGradient-2" node-id="9" spreadMethod="pad" x1="0.5" x2="0.5" y1="0" y2="1"><stop offset="0" stop-color="#fff9e0"/><stop offset="0.27121985" stop-color="#ffeb96" stop-opacity="0"/><stop offset="1" stop-color="#ffa60f" stop-opacity="0"/></linearGradient><linearGradient gradientUnits="objectBoundingBox" id="linearGradient-3" node-id="13" spreadMethod="pad" x1="0.5" x2="0.5" y1="0" y2="1"><stop offset="0" stop-color="#f07e3f"/><stop offset="1" stop-color="#e35400"/></linearGradient><linearGradient gradientUnits="objectBoundingBox" id="linearGradient-4" node-id="16" spreadMethod="pad" x1="0.5" x2="0.5" y1="0" y2="1"><stop offset="0" stop-color="#b84301" stop-opacity="0"/><stop offset="1" stop-color="#bc4701"/></linearGradient><linearGradient gradientUnits="objectBoundingBox" id="linearGradient-6" node-id="21" spreadMethod="pad" x1="0.5" x2="0.5" y1="0" y2="1"><stop offset="0" stop-color="#ffaa7c"/><stop offset="1" stop-color="#f47e3f" stop-opacity="0"/></linearGradient><linearGradient gradientUnits="objectBoundingBox" id="linearGradient-8" node-id="26" spreadMethod="pad" x1="0.5" x2="0.5" y1="0" y2="1"><stop offset="0" stop-color="#f07e3f"/><stop offset="1" stop-color="#d15000"/></linearGradient><radialGradient cx="0.5" cy="0.27637437" fx="0.5" fy="0.27637437" gradientUnits="objectBoundingBox" id="radialGradient-1" node-id="5" r="0.72362566" rev="1" spreadMethod="pad"><stop offset="0" stop-color="#fff5aa"/><stop offset="0.27121985" stop-color="#ffeb96"/><stop offset="1" stop-color="#ffa60f"/></radialGradient><filter filterUnits="objectBoundingBox" height="260.9453" id="filter-5" node-id="19" width="252.96909" x="385.20328" y="649.6615"><feGaussianBlur color-interpolation-filters="linearRGB" in="SourceGraphic" result="result1" stdDeviation="4 4"></feGaussianBlur></filter><filter filterUnits="objectBoundingBox" height="83.162964" id="filter-7" node-id="24" width="217.33267" x="403.13638" y="645.79083"><feGaussianBlur color-interpolation-filters="linearRGB" in="SourceGraphic" result="result1" stdDeviation="4 4"></feGaussianBlur></filter><filter filterUnits="objectBoundingBox" height="181.72748" id="filter-9" node-id="29" width="51.456482" x="486.07446" y="651.8678"><feGaussianBlur color-interpolation-filters="linearRGB" in="SourceGraphic" result="result1" stdDeviation="2 2"></feGaussianBlur></filter></defs><g node-id="98"><path d="M 1024.60 512.70 L 1024.20 533.10 L 1023.00 553.30 L 1021.00 573.30 L 1018.30 593.30 L 1014.70 613.00 L 1010.40 632.60 L 1005.30 652.00 L 999.50 671.00 L 992.90 690.00 L 985.70 708.50 L 977.60 726.90 L 969.00 744.80 L 959.50 762.50 L 949.50 779.70 L 938.60 796.60 L 927.10 813.20 L 915.00 829.30 L 902.30 844.80 L 888.90 859.90 L 874.70 874.70 L 859.90 888.90 L 844.80 902.30 L 829.30 915.00 L 813.20 927.10 L 796.60 938.60 L 779.70 949.50 L 762.50 959.50 L 744.80 969.00 L 726.90 977.60 L 708.50 985.70 L 690.00 992.90 L 671.00 999.50 L 652.00 1005.30 L 632.60 1010.40 L 613.00 1014.70 L 593.30 1018.30 L 573.30 1021.00 L 553.30 1023.00 L 533.10 1024.20 L 512.70 1024.60 L 492.30 1024.20 L 472.00 1023.00 L 451.90 1021.00 L 432.00 1018.30 L 412.30 1014.70 L 392.70 1010.40 L 373.20 1005.30 L 354.20 999.50 L 335.40 992.90 L 316.70 985.70 L 298.40 977.60 L 280.40 969.00 L 262.70 959.50 L 245.50 949.50 L 228.60 938.60 L 212.10 927.10 L 196.10 915.00 L 180.50 902.30 L 165.30 888.90 L 150.50 874.70 L 136.50 859.90 L 123.10 844.80 L 110.20 829.30 L 98.10 813.20 L 86.60 796.60 L 75.80 779.70 L 65.70 762.50 L 56.40 744.80 L 47.60 726.90 L 39.70 708.50 L 32.30 690.00 L 25.70 671.00 L 19.90 652.00 L 14.90 632.60 L 10.60 613.00 L 7.00 593.30 L 4.30 573.30 L 2.30 553.30 L 1.00 533.10 L 0.60 512.70 L 1.00 492.30 L 2.30 472.00 L 4.30 451.90 L 7.00 432.00 L 10.60 412.30 L 14.90 392.70 L 19.90 373.20 L 25.70 354.20 L 32.30 335.40 L 39.70 316.70 L 47.60 298.40 L 56.40 280.40 L 65.70 262.70 L 75.80 245.50 L 86.60 228.60 L 98.10 212.10 L 110.20 196.10 L 123.10 180.50 L 136.50 165.30 L 150.50 150.50 L 165.30 136.50 L 180.50 123.10 L 196.10 110.20 L 212.10 98.10 L 228.60 86.60 L 245.50 75.80 L 262.70 65.70 L 280.40 56.40 L 298.40 47.60 L 316.70 39.70 L 335.40 32.30 L 354.20 25.70 L 373.20 19.90 L 392.70 14.90 L 412.30 10.60 L 432.00 7.00 L 451.90 4.30 L 472.00 2.30 L 492.30 1.00 L 512.70 0.60 L 533.10 1.00 L 553.30 2.30 L 573.30 4.30 L 593.30 7.00 L 613.00 10.60 L 632.60 14.90 L 652.00 19.90 L 671.00 25.70 L 690.00 32.30 L 708.50 39.70 L 726.90 47.60 L 744.80 56.40 L 762.50 65.70 L 779.70 75.80 L 796.60 86.60 L 813.20 98.10 L 829.30 110.20 L 844.80 123.10 L 859.90 136.50 L 874.70 150.50 L 888.90 165.30 L 902.30 180.50 L 915.00 196.10 L 927.10 212.10 L 938.60 228.60 L 949.50 245.50 L 959.50 262.70 L 969.00 280.40 L 977.60 298.40 L 985.70 316.70 L 992.90 335.40 L 999.50 354.20 L 1005.30 373.20 L 1010.40 392.70 L 1014.70 412.30 L 1018.30 432.00 L 1021.00 451.90 L 1023.00 472.00 L 1024.20 492.30 Z" fill="url(#radialGradient-1)" fill-rule="evenodd" group-id="1" id="蒙版" node-id="33" stroke="none" target-height="1024" target-width="1024" target-x="0.6" target-y="0.6"/><path d="M 1024.60 512.70 L 1024.20 533.10 L 1023.00 553.30 L 1021.00 573.30 L 1018.30 593.30 L 1014.70 613.00 L 1010.40 632.60 L 1005.30 652.00 L 999.50 671.00 L 992.90 690.00 L 985.70 708.50 L 977.60 726.90 L 969.00 744.80 L 959.50 762.50 L 949.50 779.70 L 938.60 796.60 L 927.10 813.20 L 915.00 829.30 L 902.30 844.80 L 888.90 859.90 L 874.70 874.70 L 859.90 888.90 L 844.80 902.30 L 829.30 915.00 L 813.20 927.10 L 796.60 938.60 L 779.70 949.50 L 762.50 959.50 L 744.80 969.00 L 726.90 977.60 L 708.50 985.70 L 690.00 992.90 L 671.00 999.50 L 652.00 1005.30 L 632.60 1010.40 L 613.00 1014.70 L 593.30 1018.30 L 573.30 1021.00 L 553.30 1023.00 L 533.10 1024.20 L 512.70 1024.60 L 492.30 1024.20 L 472.00 1023.00 L 451.90 1021.00 L 432.00 1018.30 L 412.30 1014.70 L 392.70 1010.40 L 373.20 1005.30 L 354.20 999.50 L 335.40 992.90 L 316.70 985.70 L 298.40 977.60 L 280.40 969.00 L 262.70 959.50 L 245.50 949.50 L 228.60 938.60 L 212.10 927.10 L 196.10 915.00 L 180.50 902.30 L 165.30 888.90 L 150.50 874.70 L 136.50 859.90 L 123.10 844.80 L 110.20 829.30 L 98.10 813.20 L 86.60 796.60 L 75.80 779.70 L 65.70 762.50 L 56.40 744.80 L 47.60 726.90 L 39.70 708.50 L 32.30 690.00 L 25.70 671.00 L 19.90 652.00 L 14.90 632.60 L 10.60 613.00 L 7.00 593.30 L 4.30 573.30 L 2.30 553.30 L 1.00 533.10 L 0.60 512.70 L 1.00 492.30 L 2.30 472.00 L 4.30 451.90 L 7.00 432.00 L 10.60 412.30 L 14.90 392.70 L 19.90 373.20 L 25.70 354.20 L 32.30 335.40 L 39.70 316.70 L 47.60 298.40 L 56.40 280.40 L 65.70 262.70 L 75.80 245.50 L 86.60 228.60 L 98.10 212.10 L 110.20 196.10 L 123.10 180.50 L 136.50 165.30 L 150.50 150.50 L 165.30 136.50 L 180.50 123.10 L 196.10 110.20 L 212.10 98.10 L 228.60 86.60 L 245.50 75.80 L 262.70 65.70 L 280.40 56.40 L 298.40 47.60 L 316.70 39.70 L 335.40 32.30 L 354.20 25.70 L 373.20 19.90 L 392.70 14.90 L 412.30 10.60 L 432.00 7.00 L 451.90 4.30 L 472.00 2.30 L 492.30 1.00 L 512.70 0.60 L 533.10 1.00 L 553.30 2.30 L 573.30 4.30 L 593.30 7.00 L 613.00 10.60 L 632.60 14.90 L 652.00 19.90 L 671.00 25.70 L 690.00 32.30 L 708.50 39.70 L 726.90 47.60 L 744.80 56.40 L 762.50 65.70 L 779.70 75.80 L 796.60 86.60 L 813.20 98.10 L 829.30 110.20 L 844.80 123.10 L 859.90 136.50 L 874.70 150.50 L 888.90 165.30 L 902.30 180.50 L 915.00 196.10 L 927.10 212.10 L 938.60 228.60 L 949.50 245.50 L 959.50 262.70 L 969.00 280.40 L 977.60 298.40 L 985.70 316.70 L 992.90 335.40 L 999.50 354.20 L 1005.30 373.20 L 1010.40 392.70 L 1014.70 412.30 L 1018.30 432.00 L 1021.00 451.90 L 1023.00 472.00 L 1024.20 492.30 Z" fill="url(#linearGradient-2)" fill-rule="evenodd" group-id="1" id="蒙版备份" node-id="34" stroke="none" target-height="1024" target-width="1024" target-x="0.6" target-y="0.6"/><path d="M 394.00 658.40 L 630.80 658.40 L 630.80 803.10 L 630.60 809.70 L 629.90 816.20 L 628.90 822.50 L 627.50 828.70 L 625.70 834.70 L 622.90 842.00 L 619.60 849.10 L 615.80 855.70 L 611.50 862.10 L 606.70 868.20 L 601.50 873.80 L 595.90 879.00 L 589.80 883.80 L 583.50 888.10 L 576.80 891.90 L 569.80 895.20 L 562.40 898.00 L 556.40 899.80 L 550.20 901.20 L 543.90 902.20 L 537.50 902.80 L 530.80 903.10 L 494.00 903.10 L 487.40 902.80 L 480.90 902.20 L 474.60 901.20 L 468.40 899.80 L 462.40 898.00 L 455.00 895.20 L 448.00 891.90 L 441.30 888.10 L 435.00 883.80 L 428.90 879.00 L 423.30 873.80 L 418.10 868.20 L 413.30 862.10 L 409.00 855.70 L 405.20 849.10 L 401.90 842.00 L 399.10 834.70 L 397.30 828.70 L 395.90 822.50 L 394.90 816.20 L 394.30 809.70 L 394.00 803.10 L 394.00 658.40 Z" fill="url(#linearGradient-3)" fill-rule="evenodd" group-id="1" id="矩形" node-id="35" stroke="none" target-height="244.69995" target-width="236.79999" target-x="394" target-y="658.4"/><g node-id="99"><path d="M 627.30 661.90 L 627.30 803.10 L 627.10 809.70 L 626.40 816.20 L 625.30 822.50 L 623.80 828.70 L 621.90 834.80 L 619.70 840.70 L 617.10 846.30 L 614.10 851.80 L 607.20 862.00 L 603.30 866.80 L 594.50 875.50 L 584.80 883.10 L 574.00 889.40 L 568.40 892.00 L 562.50 894.20 L 556.40 896.10 L 550.30 897.60 L 544.00 898.70 L 537.50 899.30 L 530.80 899.60 L 494.00 899.60 L 487.30 899.30 L 480.90 898.70 L 474.50 897.60 L 468.40 896.10 L 462.30 894.20 L 456.40 892.00 L 450.80 889.40 L 445.30 886.40 L 440.00 883.10 L 430.30 875.50 L 421.60 866.80 L 417.60 862.00 L 410.70 851.80 L 407.70 846.30 L 405.10 840.70 L 402.90 834.80 L 401.00 828.70 L 399.50 822.50 L 398.40 816.20 L 397.80 809.70 L 397.50 803.10 L 397.50 661.90 L 627.30 661.90 Z" fill="none" filter="url(#filter-5)" group-id="1,2" id="矩形备份-2" node-id="36" stroke="url(#linearGradient-4)" stroke-linecap="butt" stroke-width="7" target-height="237.69995" target-width="229.79999" target-x="397.5" target-y="661.9"/></g><g node-id="100"><path d="M 415.70 658.40 L 609.10 658.40 L 609.10 717.60 L 415.70 717.60 Z" fill="url(#linearGradient-6)" fill-rule="evenodd" filter="url(#filter-7)" group-id="1,3" id="矩形备份-3" node-id="37" stroke="none" target-height="59.19995" target-width="193.39996" target-x="415.7" target-y="658.4"/></g><g node-id="101"><path d="M 492.70 658.40 L 532.10 658.40 L 532.10 828.10 L 492.70 828.10 Z" fill="url(#linearGradient-8)" fill-opacity="0.71660215" fill-rule="evenodd" filter="url(#filter-9)" group-id="1,4" id="矩形备份" node-id="38" stroke="none" target-height="169.69995" target-width="39.399963" target-x="492.7" target-y="658.4"/></g><path d="M 781.70 629.80 L 781.70 665.30 L 249.00 665.30 L 249.00 629.80 Z" fill="#672900" fill-rule="nonzero" group-id="1" id="直线-2" node-id="39" stroke="none" target-height="35.5" target-width="532.7" target-x="249" target-y="629.8"/><path d="M 465.10 428.50 L 464.60 441.10 L 463.20 453.20 L 461.10 464.70 L 458.20 475.90 L 454.50 487.10 L 450.10 497.60 L 444.90 507.70 L 439.20 517.20 L 432.70 526.30 L 425.60 534.70 L 418.20 542.40 L 410.20 549.60 L 401.40 556.10 L 392.50 561.90 L 383.10 566.80 L 373.30 570.90 L 365.10 573.60 L 357.00 575.70 L 348.50 577.20 L 339.70 578.10 L 330.80 578.50 L 321.90 578.10 L 313.30 577.20 L 304.80 575.70 L 296.50 573.60 L 288.50 570.90 L 278.70 566.80 L 269.30 561.90 L 260.20 556.10 L 251.60 549.60 L 243.60 542.40 L 236.00 534.70 L 229.10 526.30 L 222.60 517.20 L 216.80 507.70 L 211.70 497.60 L 207.30 487.10 L 203.50 475.90 L 200.50 464.70 L 198.40 453.20 L 197.20 441.10 L 196.70 428.50 L 197.20 416.00 L 198.40 404.10 L 200.50 392.50 L 203.50 381.20 L 207.30 370.00 L 211.70 359.50 L 216.80 349.50 L 222.60 340.10 L 229.10 330.90 L 236.00 322.40 L 243.60 314.70 L 251.60 307.60 L 260.20 301.10 L 269.30 295.40 L 278.70 290.40 L 288.50 286.30 L 296.50 283.50 L 304.80 281.50 L 313.30 279.90 L 321.90 279.00 L 330.80 278.60 L 339.70 279.00 L 348.50 279.90 L 357.00 281.50 L 365.10 283.50 L 373.30 286.30 L 383.10 290.40 L 392.50 295.40 L 401.40 301.10 L 410.20 307.60 L 418.20 314.70 L 425.60 322.40 L 432.70 330.90 L 439.20 340.10 L 444.90 349.50 L 450.10 359.50 L 454.50 370.00 L 458.20 381.20 L 461.10 392.50 L 463.20 404.10 L 464.60 416.00 Z" fill="#ffffff" fill-rule="evenodd" group-id="1" id="椭圆形备份-2" node-id="40" stroke="none" target-height="299.9" target-width="268.40002" target-x="196.7" target-y="278.6"/><path d="M 330.80 278.60 L 339.70 279.00 L 348.50 279.90 L 357.00 281.50 L 365.10 283.50 L 373.30 286.30 L 383.10 290.40 L 392.50 295.40 L 401.40 301.10 L 410.20 307.60 L 418.20 314.70 L 425.60 322.40 L 432.70 330.90 L 439.20 340.10 L 444.90 349.50 L 450.10 359.50 L 454.50 370.00 L 458.20 381.20 L 461.10 392.50 L 463.20 404.10 L 464.60 416.00 L 465.10 428.50 L 464.60 441.10 L 463.20 453.20 L 461.10 464.70 L 458.20 475.90 L 454.50 487.10 L 450.10 497.60 L 444.90 507.70 L 439.20 517.20 L 432.70 526.30 L 425.60 534.70 L 418.20 542.40 L 410.20 549.60 L 401.40 556.10 L 392.50 561.90 L 383.10 566.80 L 373.30 570.90 L 365.10 573.60 L 357.00 575.70 L 348.50 577.20 L 339.70 578.10 L 330.80 578.50 L 321.90 578.10 L 313.30 577.20 L 304.80 575.70 L 296.50 573.60 L 288.50 570.90 L 278.70 566.80 L 269.30 561.90 L 260.20 556.10 L 251.60 549.60 L 243.60 542.40 L 236.00 534.70 L 229.10 526.30 L 222.60 517.20 L 216.80 507.70 L 211.70 497.60 L 207.30 487.10 L 203.50 475.90 L 200.50 464.70 L 198.40 453.20 L 197.20 441.10 L 196.70 428.50 L 197.20 416.00 L 198.40 404.10 L 200.50 392.50 L 203.50 381.20 L 207.30 370.00 L 211.70 359.50 L 216.80 349.50 L 222.60 340.10 L 229.10 330.90 L 236.00 322.40 L 243.60 314.70 L 251.60 307.60 L 260.20 301.10 L 269.30 295.40 L 278.70 290.40 L 288.50 286.30 L 296.50 283.50 L 304.80 281.50 L 313.30 279.90 L 321.90 279.00 L 330.80 278.60 Z M 330.80 294.40 L 323.10 294.70 L 315.60 295.60 L 308.10 297.00 L 300.90 298.70 L 294.10 301.10 L 285.40 304.70 L 277.20 309.00 L 269.20 314.10 L 261.60 319.80 L 254.40 326.10 L 247.80 332.90 L 241.60 340.40 L 235.80 348.80 L 230.60 357.20 L 226.00 366.20 L 222.10 375.60 L 218.60 385.80 L 215.90 396.00 L 214.00 406.30 L 212.90 417.10 L 212.50 428.50 L 212.90 440.00 L 214.00 451.00 L 215.90 461.30 L 218.60 471.30 L 222.10 481.50 L 226.00 491.00 L 230.60 500.00 L 235.80 508.50 L 241.60 516.70 L 247.80 524.10 L 254.50 531.00 L 261.60 537.40 L 269.20 543.20 L 277.20 548.20 L 285.40 552.50 L 294.00 556.10 L 300.90 558.40 L 308.10 560.30 L 315.50 561.50 L 323.10 562.40 L 330.80 562.70 L 338.50 562.40 L 346.30 561.50 L 353.60 560.30 L 360.70 558.40 L 367.80 556.10 L 376.40 552.50 L 384.50 548.20 L 392.40 543.20 L 400.20 537.40 L 407.20 531.10 L 413.90 524.10 L 420.20 516.70 L 426.00 508.50 L 431.10 500.00 L 435.70 491.00 L 439.70 481.50 L 443.10 471.40 L 445.70 461.30 L 447.60 450.90 L 448.80 439.90 L 449.30 428.50 L 448.80 417.20 L 447.60 406.40 L 445.70 395.90 L 443.10 385.70 L 439.70 375.60 L 435.80 366.20 L 431.20 357.20 L 426.00 348.80 L 420.20 340.50 L 413.80 332.90 L 407.30 326.10 L 400.20 319.90 L 392.40 314.10 L 384.50 309.00 L 376.40 304.70 L 367.70 301.10 L 360.70 298.70 L 353.60 297.00 L 346.20 295.60 L 338.50 294.70 L 330.80 294.40 Z" fill="#9a9997" fill-rule="nonzero" group-id="1" id="椭圆形备份-3" node-id="41" stroke="none" target-height="299.9" target-width="268.40002" target-x="196.7" target-y="278.6"/><path d="M 362.50 470.00 L 362.10 476.20 L 361.40 482.20 L 360.30 488.10 L 356.50 499.20 L 351.20 509.50 L 344.40 518.80 L 340.40 523.00 L 336.20 526.90 L 331.70 530.50 L 326.90 533.80 L 316.70 539.10 L 311.10 541.20 L 305.50 542.80 L 299.70 544.00 L 293.70 544.70 L 287.50 545.00 L 281.30 544.70 L 275.30 544.00 L 269.50 542.80 L 263.80 541.20 L 258.30 539.10 L 248.00 533.80 L 243.20 530.50 L 238.70 526.90 L 234.60 523.00 L 230.60 518.80 L 223.80 509.50 L 218.50 499.20 L 214.70 488.10 L 213.50 482.20 L 212.80 476.20 L 212.50 470.00 L 212.80 463.70 L 213.50 457.70 L 214.70 451.90 L 216.40 446.20 L 218.50 440.70 L 221.00 435.40 L 223.80 430.40 L 227.00 425.70 L 230.60 421.20 L 238.70 413.10 L 243.20 409.50 L 248.00 406.20 L 253.00 403.40 L 258.30 400.90 L 263.80 398.80 L 269.50 397.10 L 281.30 395.20 L 293.70 395.20 L 305.50 397.10 L 311.10 398.80 L 316.70 400.90 L 326.90 406.20 L 331.70 409.50 L 336.20 413.10 L 344.40 421.20 L 347.90 425.70 L 351.20 430.40 L 354.00 435.40 L 356.50 440.70 L 358.60 446.20 L 360.30 451.90 L 361.40 457.70 L 362.10 463.70 Z" fill="#302838" fill-rule="evenodd" group-id="1" id="椭圆形" node-id="42" stroke="none" target-height="149.79999" target-width="150" target-x="212.5" target-y="395.2"/><g node-id="102"><path d="M 795.90 364.30 L 794.00 361.70 L 791.80 359.60 L 789.40 357.90 L 786.70 356.60 L 783.80 355.90 L 780.90 355.50 L 777.90 355.70 L 774.90 356.40 L 772.00 357.70 L 606.30 454.70 L 603.60 456.60 L 601.40 458.70 L 599.80 461.10 L 598.60 463.70 L 597.80 466.40 L 597.50 469.20 L 597.60 472.10 L 598.20 474.80 L 599.10 477.40 L 600.50 479.90 L 602.20 482.10 L 604.30 484.10 L 606.70 485.60 L 609.50 486.80 L 612.80 487.60 L 648.40 493.10 L 669.90 497.10 L 689.60 501.10 L 707.40 505.30 L 723.50 509.60 L 738.10 513.90 L 751.20 518.30 L 763.70 523.00 L 774.70 527.70 L 784.50 532.40 L 793.00 537.00 L 800.40 541.60 L 806.80 546.20 L 815.70 553.60 L 818.50 555.00 L 821.40 555.90 L 824.40 556.30 L 827.40 556.10 L 830.40 555.50 L 833.20 554.40 L 835.80 552.70 L 838.20 550.50 L 840.20 547.90 L 841.60 545.20 L 842.50 542.30 L 842.90 539.30 L 842.80 536.30 L 842.20 533.30 L 841.00 530.50 L 839.40 527.90 L 837.20 525.40 L 831.00 520.10 L 823.90 514.80 L 816.00 509.50 L 807.10 504.30 L 797.30 499.10 L 786.30 494.00 L 773.90 488.90 L 760.10 483.80 L 744.80 478.80 L 728.00 474.00 L 709.60 469.30 L 689.20 464.70 L 666.90 460.30 L 789.50 388.60 L 792.10 386.80 L 794.20 384.60 L 795.90 382.20 L 797.20 379.40 L 798.00 376.60 L 798.30 373.60 L 798.10 370.70 L 797.40 367.70 L 795.90 364.30 Z" fill="#672900" fill-rule="nonzero" group-id="1,5" id="直线" node-id="43" stroke="none" target-height="200.79999" target-width="245.40002" target-x="597.5" target-y="355.5"/></g></g></svg>