<svg t="1736249500268" class="icon" viewBox="0 0 1024 1024" version="1.1" xmlns="http://www.w3.org/2000/svg" p-id="15083" width="200" height="200"><path d="M800.614 930.765H230.042c-73.524 0-133.12-59.597-133.12-133.12V226.304c0-73.523 59.596-133.12 133.12-133.12h570.572c73.524 0 133.12 59.597 133.12 133.12v571.29c0 73.523-59.596 133.17-133.12 133.17z" fill="#FFAC3E" p-id="15084"></path><path d="M933.734 451.123l-352 218.42a46.454 46.454 0 0 1-57.292-6.554L409.907 548.915a46.5 46.5 0 0 0-65.126-0.46L96.92 788.53v12.8c0 71.475 57.908 129.383 129.383 129.383h578.048c71.475 0 129.382-57.908 129.382-129.383V451.123z" fill="#FF7C0E" p-id="15085"></path><path d="M268.442 335.718a68.864 68.864 0 1 0 137.728 0 68.864 68.864 0 1 0-137.728 0z" fill="#FFFFFF" p-id="15086"></path></svg>